<svg height="512pt" viewBox="0 -29 512 512" width="512pt" xmlns="http://www.w3.org/2000/svg"><path d="m7.574219 7.574219h496.851562v321.136719h-496.851562zm0 0" fill="#fdc26b"/><path d="m7.574219 7.574219v96.917969l248.425781 140.371093 213.160156-120.445312c6.734375-3.804688 15.070313 1.058593 15.070313 8.792969v195.5h20.195312v-321.136719zm0 0" fill="#fcb54c"/><path d="m7.574219 328.710938 248.425781-180.765626 248.425781 180.765626zm0 0" fill="#fba72d"/><path d="m504.425781 328.710938-248.425781-180.765626-248.425781 180.765626h38.375l210.050781-152.84375 210.050781 152.84375zm0 0" fill="#fa9a0f"/><path d="m330.972656 202.5-74.972656-54.554688-74.972656 54.554688 74.972656 42.363281zm0 0" fill="#fa9a0f"/><path d="m504.425781 7.574219v73.71875l-248.425781 140.371093-248.425781-140.371093v-73.71875zm0 0" fill="#fecf8a"/><path d="m356.984375 344.984375c0 55.773437-45.210937 100.984375-100.984375 100.984375s-100.984375-45.210938-100.984375-100.984375 45.210937-100.988281 100.984375-100.988281 100.984375 45.214844 100.984375 100.988281zm0 0" fill="#7af4ab"/><path d="m321.683594 268.28125c15.136718 17.660156 24.285156 40.601562 24.285156 65.6875 0 55.769531-45.210938 100.984375-100.984375 100.984375-25.082031 0-48.027344-9.148437-65.683594-24.285156 18.519531 21.609375 46.007813 35.300781 76.699219 35.300781 55.773438 0 100.984375-45.210938 100.984375-100.984375 0-30.691406-13.691406-58.179687-35.300781-76.703125zm0 0" fill="#6ad394"/><path d="m329.71875 344.851562-121.183594 61.789063v-46.792969l37.195313-14.996094-37.195313-14.917968v-46.609375zm0 0" fill="#e1ebf0"/><path d="m314.777344 337.265625-106.242188 54.171875v15.203125l121.183594-61.789063zm0 0" fill="#b4d2d7"/><path d="m504.425781 160.078125c4.183594 0 7.574219-3.390625 7.574219-7.574219v-144.929687c0-4.183594-3.390625-7.574219-7.574219-7.574219h-392.332031c-4.183594 0-7.574219 3.390625-7.574219 7.574219 0 4.183593 3.390625 7.574219 7.574219 7.574219h384.757812v61.726562l-240.851562 136.089844-240.851562-136.089844v-61.726562h61.554687c4.183594 0 7.574219-3.390626 7.574219-7.574219 0-4.183594-3.390625-7.574219-7.574219-7.574219h-69.128906c-4.183594 0-7.574219 3.390625-7.574219 7.574219v321.136719c0 4.183593 3.390625 7.574218 7.574219 7.574218h140.214843c-.230468 2.871094-.347656 5.769532-.347656 8.699219 0 23.253906 7.246094 45.433594 20.960938 64.132813 2.472656 3.375 7.214844 4.105468 10.585937 1.628906 3.371094-2.472656 4.101563-7.210938 1.628907-10.585938-11.796876-16.082031-18.03125-35.164062-18.03125-55.175781 0-51.507813 41.90625-93.414063 93.414062-93.414063s93.410156 41.90625 93.410156 93.414063-41.902344 93.410156-93.410156 93.410156c-18.457031 0-36.304688-5.371093-51.609375-15.535156-3.484375-2.3125-8.183594-1.367187-10.5 2.117187-2.3125 3.488282-1.363281 8.1875 2.121094 10.5 17.796875 11.820313 38.539062 18.066407 59.988281 18.066407 59.859375 0 108.558594-48.699219 108.558594-108.558594 0-2.929687-.117188-5.828125-.347656-8.699219h140.214843c4.183594 0 7.574219-3.390625 7.574219-7.574218v-140.8125c0-4.183594-3.390625-7.574219-7.574219-7.574219-4.183593 0-7.574219 3.390625-7.574219 7.574219v125.933593l-169.847656-123.589843 169.847656-95.96875v58.230468c0 4.183594 3.390626 7.574219 7.574219 7.574219zm-319.429687 30.164063-169.847656 123.589843v-219.558593zm296.148437 130.894531h-119.230469c-10.894531-48.425781-54.246093-84.714844-105.914062-84.714844-51.671875 0-95.019531 36.289063-105.914062 84.714844h-119.230469l168.632812-122.703125 52.785157 29.824218c1.15625.652344 2.441406.980469 3.726562.980469s2.570312-.328125 3.726562-.980469l52.785157-29.824218zm0 0"/><path d="m200.964844 359.847656v46.792969c0 2.636719 1.367187 5.082031 3.613281 6.460937 1.210937.742188 2.582031 1.113282 3.957031 1.113282 1.179688 0 2.359375-.273438 3.441406-.824219l121.183594-61.792969c2.539063-1.292968 4.136719-3.902344 4.132813-6.753906-.003907-2.851562-1.605469-5.457031-4.144531-6.746094l-121.183594-61.527344c-2.347656-1.191406-5.144532-1.078124-7.390625.300782-2.246094 1.375-3.613281 3.820312-3.613281 6.453125v46.609375c0 3.09375 1.882812 5.878906 4.757812 7.03125l19.710938 7.902344-19.726563 7.957031c-2.863281 1.15625-4.738281 3.933593-4.738281 7.023437zm15.144531 5.113282 32.453125-13.085938c2.867188-1.15625 4.746094-3.941406 4.742188-7.03125-.003907-3.09375-1.882813-5.875-4.753907-7.023438l-32.441406-13.007812v-29.148438l96.90625 49.199219-96.90625 49.414063zm0 0"/></svg>